<svg id="icon-26-Heart" xmlns="http://www.w3.org/2000/svg" width="26" height="26" viewBox="0 0 26 26">
  <rect id="사각형_740" data-name="사각형 740" width="26" height="26" fill="none" opacity="0"/>
  <g id="그룹_1229" data-name="그룹 1229" transform="translate(-342.289 -163.629)">
    <path id="패스_453" data-name="패스 453" d="M362.12,169.825c-.1-.063-.214-.111-.322-.165.134.067.266.139.4.221C362.167,169.864,362.147,169.842,362.12,169.825Z" fill="none"/>
    <path id="패스_454" data-name="패스 454" d="M362.9,168.542a6.234,6.234,0,0,0-7.6.886,6.233,6.233,0,0,0-9.7,7.679c.018.028.036.056.055.083l.015.022.007.009.065.092c.147.205.285.4.367.507a31.534,31.534,0,0,0,4.232,4.115c1.487,1.276,3.1,2.568,4.026,3.288a1.5,1.5,0,0,0,.919.314h.029a1.5,1.5,0,0,0,.919-.314c.923-.716,2.532-2.007,4.026-3.288a31.469,31.469,0,0,0,4.232-4.115c.092-.121.264-.363.42-.583l.028-.039c.022-.031.043-.063.063-.1A6.241,6.241,0,0,0,362.9,168.542Zm.828,7.787h-.008c-.033.046-.316.447-.422.586l-.013.015a17.311,17.311,0,0,1-1.733,1.836q-.314.3-.67.622c-.433.394-.911.818-1.44,1.272-.054.045-.1.1-.157.139-1.482,1.27-3.065,2.54-3.97,3.241l-.014-.011-.014.011c-.9-.7-2.488-1.971-3.969-3.241-.058-.047-.111-.1-.169-.149q-.781-.673-1.421-1.256-.363-.33-.679-.631a17.127,17.127,0,0,1-1.728-1.83l-.017-.018c-.094-.124-.328-.455-.407-.564l-.015-.022c-.045-.074-.069-.153-.109-.229a4.739,4.739,0,0,1-.3-.62c-.031-.084-.043-.172-.069-.258a4.593,4.593,0,0,1-.158-.634c-.013-.083-.01-.166-.018-.249a4.67,4.67,0,0,1-.032-.657c0-.077.02-.152.026-.229a4.774,4.774,0,0,1,.1-.663c.017-.071.045-.139.065-.21a4.879,4.879,0,0,1,.223-.642c.03-.067.07-.129.1-.194a4.659,4.659,0,0,1,.344-.591c.044-.063.1-.12.144-.181a4.569,4.569,0,0,1,.453-.513c.059-.057.126-.107.189-.161a4.6,4.6,0,0,1,.373-.318c.07-.048.145-.083.216-.127.013-.008.023-.019.036-.027s.038-.016.056-.027a4.76,4.76,0,0,1,.727-.351c.024-.009.047-.02.071-.028a4.7,4.7,0,0,1,1.6-.291c.039,0,.077.011.115.012s.071.009.107.011a4.609,4.609,0,0,1,.751.087,4.756,4.756,0,0,1,.832.254l.023.01a4.677,4.677,0,0,1,1.423.926l.078.076a4.728,4.728,0,0,1,.557.65l.193.273.306.428.494-.7a4.661,4.661,0,0,1,.614-.7l.036-.035a4.715,4.715,0,0,1,.7-.539c.022-.015.046-.027.069-.041a4.736,4.736,0,0,1,.737-.368c.016-.006.031-.015.047-.021a4.875,4.875,0,0,1,.765-.212c.065-.013.129-.025.194-.035a4.814,4.814,0,0,1,.72-.061h.029c.082,0,.163.012.244.017a4.681,4.681,0,0,1,.539.061c.11.019.22.04.33.067a4.68,4.68,0,0,1,.516.165,4.73,4.73,0,0,1,.468.208c.108.054.217.1.322.165.027.017.047.039.074.056.065.041.135.066.2.111a4.567,4.567,0,0,1,.38.324c.052.045.107.086.156.133a4.7,4.7,0,0,1,.51.576c.027.035.057.068.083.1a4.65,4.65,0,0,1,.421.72c.008.018.019.034.027.052A4.716,4.716,0,0,1,363.724,176.329Z"/>
    <path id="패스_455" data-name="패스 455" d="M363.717,176.326c-.033.045-.317.447-.422.586l-.014.018.013-.015c.106-.139.389-.54.422-.586h.008a4.716,4.716,0,0,0,.245-4.428A4.73,4.73,0,0,1,363.717,176.326Z"/>
    <path id="패스_456" data-name="패스 456" d="M362.392,169.992c-.063-.045-.133-.07-.2-.111a4.824,4.824,0,0,1,.578.435A4.567,4.567,0,0,0,362.392,169.992Z"/>
  </g>
</svg>
